<svg width="100" height="100" viewBox="0 0 100 100" fill="none" xmlns="http://www.w3.org/2000/svg">
<g clip-path="url(#clip0_19_12)">
<path fill-rule="evenodd" clip-rule="evenodd" d="M45.8334 83.3333C45.8334 90.2369 40.2369 95.8333 33.3334 95.8333H16.6667C9.76315 95.8333 4.16669 90.2369 4.16669 83.3333V16.6667C4.16669 9.76291 9.76315 4.16666 16.6667 4.16666H33.3334C40.2369 4.16666 45.8334 9.76291 45.8334 16.6667V83.3333ZM37.5 83.3333C37.5 85.6345 35.6345 87.5 33.3334 87.5H16.6667C14.3655 87.5 12.5 85.6345 12.5 83.3333V16.6667C12.5 14.3654 14.3655 12.5 16.6667 12.5H33.3334C35.6345 12.5 37.5 14.3654 37.5 16.6667V83.3333Z" fill="#0F0F0F"/>
<path fill-rule="evenodd" clip-rule="evenodd" d="M95.8334 83.3333C95.8334 90.2369 90.2371 95.8333 83.3334 95.8333H66.6667C59.7629 95.8333 54.1667 90.2369 54.1667 83.3333V16.6667C54.1667 9.76291 59.7629 4.16666 66.6667 4.16666H83.3334C90.2371 4.16666 95.8334 9.76291 95.8334 16.6667V83.3333ZM87.5 83.3333C87.5 85.6345 85.6346 87.5 83.3334 87.5H66.6667C64.3654 87.5 62.5 85.6345 62.5 83.3333V16.6667C62.5 14.3654 64.3654 12.5 66.6667 12.5H83.3334C85.6346 12.5 87.5 14.3654 87.5 16.6667V83.3333Z" fill="#0F0F0F"/>
</g>
<defs>
<clipPath id="clip0_19_12">
<rect width="100" height="100" fill="white"/>
</clipPath>
</defs>
</svg>
