<svg width="100" height="100" viewBox="0 0 100 100" fill="none" xmlns="http://www.w3.org/2000/svg">
<g clip-path="url(#clip0_18_7)">
<path fill-rule="evenodd" clip-rule="evenodd" d="M83.3333 54.1666C90.2369 54.1666 95.8333 59.7631 95.8333 66.6666V83.3333C95.8333 90.2369 90.2369 95.8333 83.3333 95.8333H16.6667C9.76291 95.8333 4.16666 90.2369 4.16666 83.3333V66.6666C4.16666 59.7631 9.76291 54.1666 16.6667 54.1666L83.3333 54.1666ZM83.3333 62.5C85.6345 62.5 87.5 64.3655 87.5 66.6666V83.3333C87.5 85.6345 85.6345 87.5 83.3333 87.5H16.6667C14.3654 87.5 12.5 85.6345 12.5 83.3333V66.6666C12.5 64.3655 14.3654 62.5 16.6667 62.5L83.3333 62.5Z" fill="#0F0F0F"/>
<path fill-rule="evenodd" clip-rule="evenodd" d="M83.3333 4.16665C90.2369 4.16665 95.8333 9.7629 95.8333 16.6666V33.3333C95.8333 40.2371 90.2369 45.8333 83.3333 45.8333L16.6667 45.8333C9.76291 45.8333 4.16666 40.2371 4.16666 33.3333V16.6666C4.16666 9.7629 9.76291 4.16665 16.6667 4.16665L83.3333 4.16665ZM83.3333 12.5C85.6345 12.5 87.5 14.3654 87.5 16.6666V33.3333C87.5 35.6346 85.6345 37.5 83.3333 37.5L16.6667 37.5C14.3654 37.5 12.5 35.6346 12.5 33.3333V16.6666C12.5 14.3654 14.3654 12.5 16.6667 12.5L83.3333 12.5Z" fill="#0F0F0F"/>
</g>
<defs>
<clipPath id="clip0_18_7">
<rect width="100" height="100" fill="white" transform="matrix(0 -1 1 0 0 100)"/>
</clipPath>
</defs>
</svg>
